<?xml version="1.0" encoding="iso-8859-1"?>
<!-- Generator: Adobe Illustrator 16.0.0, SVG Export Plug-In . SVG Version: 6.00 Build 0)  -->
<!DOCTYPE svg PUBLIC "-//W3C//DTD SVG 1.1//EN" "http://www.w3.org/Graphics/SVG/1.1/DTD/svg11.dtd">
<svg version="1.1" id="Capa_1" xmlns="http://www.w3.org/2000/svg" xmlns:xlink="http://www.w3.org/1999/xlink" x="0px" y="0px"
	 width="61.587px" height="61.587px" viewBox="0 0 61.587 61.587" style="enable-background:new 0 0 61.587 61.587;"
	 xml:space="preserve">
<g>
	<g>
		<path d="M24.235,41.264L15.77,54.189h2.938l4.207-6.35l6.094,4.681l-6.284,9.067h3.318l7.223-10.38l2.664-0.033l5.249,6.876h3.318
			l-8.354-10.98L50.1,27.007h0.425v-1.85l-0.896-0.313v-10.48h1.25v-1.087l-12.023-2.748h-0.436V8.652l0.038-0.001V0L11.199,0.381
			v8.27v0.762v2.503v1.143v10.284h-0.49v1.25l1.285,0.713L24.235,41.264z M20.981,33.435l-3.203-4.926l1.473,0.815l3.605,4.723
			L20.981,33.435z M22.645,29.325h0.308V28.55c3.59,0.163,6.799,0.135,9.614-0.004l-4.864,7.426L22.645,29.325z M23.223,36.289
			l1.779,0.57l1.14,1.493l-0.585,0.893L23.223,36.289z M30.351,50.583l-6.087-4.776l1.601-2.417l4.975,6.486L30.351,50.583z
			 M29.752,44.557l-2.534-3.21l0.562-0.849l3.195,4.186L29.752,44.557z M34.386,44.761l-5.04-6.627l4.252-6.415l7.106,3.922
			L34.386,44.761z M46.69,27.007l-4.627,6.677l-7.335-3.667l1.123-1.695c5.09-0.448,8.496-1.228,10.116-1.667l0.858,0.352
			L46.69,27.007L46.69,27.007z M38.419,12.126l9.305,2.225v9.831L39.466,21.3h-1.047V12.126z M13.104,9.359l23.413-0.655v1.823
			v1.143v9.63h-0.586v1.2l-0.246-0.085c-5.278,0.742-10.628,1.095-14.527,1.262v-7.682h1.251v-1.087l-8.869-2.992h-0.435
			L13.104,9.359L13.104,9.359z M13.104,13.748l6.147,2.228v7.775c-2.447,0.08-3.971,0.081-3.972,0.081l-1.034-0.49h-1.142V13.748z"
			/>
	</g>
</g>
<g>
</g>
<g>
</g>
<g>
</g>
<g>
</g>
<g>
</g>
<g>
</g>
<g>
</g>
<g>
</g>
<g>
</g>
<g>
</g>
<g>
</g>
<g>
</g>
<g>
</g>
<g>
</g>
<g>
</g>
</svg>
